<?xml version="1.0" encoding="utf-8"?>
<!-- Generator: Adobe Illustrator 14.0.0, SVG Export Plug-In . SVG Version: 6.00 Build 43363)  -->
<!DOCTYPE svg PUBLIC "-//W3C//DTD SVG 1.1//EN" "http://www.w3.org/Graphics/SVG/1.1/DTD/svg11.dtd">
<svg version="1.1" id="Layer_1" xmlns="http://www.w3.org/2000/svg" xmlns:xlink="http://www.w3.org/1999/xlink" x="0px" y="0px"
	 width="32px" height="32px" viewBox="0 0 50 50" enable-background="new 0 0 50 50" xml:space="preserve">
  <rect fill="#00ff00" x="5" y="5" width="8.868" height="8.792" class="msportalfx-svg-c13"></rect> <rect fill="#00ff00" x="15.377" y="5" width="8.868" height="8.792" class="msportalfx-svg-c13"></rect> <rect fill="#00ff00" x="25.728" y="5" width="8.895" height="8.792" class="msportalfx-svg-c13"></rect> <rect fill="#00ff00" x="36.132" y="5" width="8.868" height="8.792" class="msportalfx-svg-c13"></rect> <rect fill="#00ff00" x="5" y="15.402" width="8.868" height="8.792" class="msportalfx-svg-c13"></rect> <rect fill="#00ff00" x="15.377" y="15.402" width="8.868" height="8.792" class="msportalfx-svg-c13"></rect> <rect fill="#00ff00" x="25.728" y="15.402" width="8.895" height="8.792" class="msportalfx-svg-c13"></rect> <rect fill="#00ff00" x="36.132" y="15.402" width="8.868" height="8.792" class="msportalfx-svg-c13"></rect> <rect fill="#00ff00" x="5" y="25.804" width="8.868" height="8.917" class="msportalfx-svg-c13"></rect> <rect fill="#00ff00" x="15.377" y="25.804" width="8.868" height="8.917" class="msportalfx-svg-c13"></rect> <rect fill="#00ff00" x="25.728" y="25.804" width="8.895" height="8.917" class="msportalfx-svg-c13"></rect> <rect fill="#00ff00" x="36.132" y="25.804" width="8.868" height="8.917" class="msportalfx-svg-c13"></rect> <rect fill="#00ff00" x="5" y="36.208" width="8.868" height="8.792" class="msportalfx-svg-c13"></rect> <rect fill="#00ff00" x="15.377" y="36.208" width="8.868" height="8.792" class="msportalfx-svg-c13"></rect> <rect fill="#00ff00" x="25.728" y="36.208" width="8.895" height="8.792" class="msportalfx-svg-c13"></rect> <rect fill="#00ff00" x="36.132" y="36.208" width="8.868" height="8.792" class="msportalfx-svg-c13"></rect>
</svg>
